PathFileType	4	(X/Y/Z)	62_2_113_p1_0-330_filt_butterworth.trc
DataRate	CameraRate	NumFrames	NumMarkers	Units	OrigDataRate	OrigDataStartFrame	OrigNumFrames
59.0	59.0	5	27	m	59.0	247	330
Frame#	Time	RHip			RKnee			RAnkle			RBigToe			RSmallToe			RHeel			LHip			LKnee			LAnkle			LBigToe			LSmallToe			LHeel			Neck			Head			Nose			RShoulder			RElbow			RWrist			RThumb			RIndex			RPinky			LShoulder			LElbow			LWrist			LThumb			LIndex			LPinky			
		X1	Y1	Z1	X2	Y2	Z2	X3	Y3	Z3	X4	Y4	Z4	X5	Y5	Z5	X6	Y6	Z6	X7	Y7	Z7	X8	Y8	Z8	X9	Y9	Z9	X10	Y10	Z10	X11	Y11	Z11	X12	Y12	Z12	X13	Y13	Z13	X14	Y14	Z14	X15	Y15	Z15	X16	Y16	Z16	X17	Y17	Z17	X18	Y18	Z18	X19	Y19	Z19	X20	Y20	Z20	X21	Y21	Z21	X22	Y22	Z22	X23	Y23	Z23	X24	Y24	Z24	X25	Y25	Z25	X26	Y26	Z26	X27	Y27	Z27	
247	4.186440677966102	0.3214406327817267	0.447218430482057	0.2610837167497036	0.32150951691919905	0.746539582865281	0.516585605276885	0.31840848912687214	1.0605103291456122	0.7873534716792225	0.29068629449819683	0.9493763611828328	0.9450038365005204	0.3680270685650492	0.9855350488937369	0.9196493221129478	0.30360753391509215	1.0999304560310512	0.8227565585643424	0.1159310812882128	0.4711593722023439	0.23695382452240868	0.15566309920999777	0.7874043141681595	0.49015392073301756	0.16170155952371207	1.041745139742186	0.7797560950432367	0.11403433126624882	0.9003487179693962	0.9231017194225959	0.07898068018705415	0.9821430037863942	0.8892178039583719	0.193790559959652	1.1152442896485957	0.800230761864172	0.24554052692288492	0.09022044089169164	-0.20080171440424197	0.2872956992058403	-0.10826166349482523	-0.34703554166350736	0.2505237457940597	-0.07635681060376324	-0.23159079157851606	0.38923335916825347	0.11439318463263222	-0.08141420972408268	0.459827580776637	0.28718977842896887	0.10947495515099337	0.4970707595142615	0.3993039621584066	0.32499290147430643	0.4632531335400784	0.5010451294836559	0.3988925180354903	0.4770853174124894	0.4917518905633773	0.40548547814218644	0.49887299393698326	0.4882424298875059	0.3916073498415111	0.07650042905503979	0.14771252134212537	-0.1723103935334974	-0.03700053908585593	0.3223320342390298	-0.0006491629869219922	-0.17530507039577342	0.41993319549785235	0.19742694832452362	-0.2352905071662552	0.3921691117474392	0.3071103135052204	-0.24519340295943853	0.40740371958179444	0.31111593239802904	-0.21111469025213414	0.42581538397194146	0.30689523250813877
248	4.203389830508475	0.3225804317651552	0.4442204573079065	0.2628172002649682	0.32155149739237676	0.7463729827927874	0.5166174287520663	0.318585539688816	1.0588764923538039	0.7876797539835777	0.29018355946978797	0.9483920426359129	0.9447943578535728	0.36766134670185313	0.9855114306634056	0.9182989681470201	0.3047915177582194	1.0938154192493876	0.8215385335814694	0.11593685078595153	0.47082505687431214	0.23817749297248295	0.15657085037879806	0.7843110145565728	0.4917383482457235	0.16156100311108862	1.0416609315952965	0.7797762509544731	0.11407081865817714	0.9002901854998804	0.9231182901397956	0.078681937651948	0.981050292320502	0.8882212317427356	0.19390790881272651	1.1147925502312395	0.7997371397545097	0.24346679230548843	0.08974669188838816	-0.20144123987086848	0.28425311182579954	-0.11150850301660946	-0.34662126810344546	0.24758735495383005	-0.07672779133743453	-0.2328451328369679	0.38761700433280644	0.11819635283284316	-0.08570781894232953	0.4616439338289241	0.2880497786524432	0.1059311530896626	0.49709817854449845	0.40243146090750237	0.3225543762769031	0.4629586043119875	0.49913646679028467	0.39810309032420743	0.4765771918233187	0.4896253663434922	0.4047155561433624	0.5041753503274002	0.48577683473964406	0.3898769080775069	0.07587136688466121	0.14857571229308625	-0.17281256153497815	-0.03917926670890182	0.3192328528390929	0.0011030576272714966	-0.17711495027148633	0.41868917748024104	0.19599691384914275	-0.23527133615794749	0.39187563739320735	0.30663315387878787	-0.24515902119016103	0.40810237218560397	0.31149133836112575	-0.2109992068512227	0.4259953774655304	0.3067620889489092
249	4.220338983050848	0.3242850032057436	0.443155481087538	0.26365373852273866	0.3216112498054231	0.747629513711926	0.5172641339574071	0.3186195449842246	1.0548428457839296	0.7892195229577317	0.28941571796547494	0.9448981891342473	0.9445713189369493	0.367594092422083	0.9823564071636914	0.9181825412751818	0.30655836645661866	1.093666665829379	0.820867405012933	0.1160420508413007	0.47129006579466975	0.23913216894112216	0.15732300492110413	0.780918131025198	0.4931784126531394	0.16157100447316602	1.0415745077570748	0.7797876114447715	0.11412906589312163	0.9003860909908695	0.9231261050125159	0.07826805613840519	0.9796257183756398	0.886912312718541	0.19416462063679069	1.1138094901195974	0.7986955400221701	0.2411164667079945	0.08931216501358104	-0.20299092132265592	0.28110912246216807	-0.11491320028451595	-0.3463583798806613	0.24519271541411464	-0.0767596422376131	-0.2337988041872133	0.3853796297523237	0.12122241359406347	-0.09005124379978184	0.4629127862319564	0.2877384248424425	0.10357320242181034	0.497003796461024	0.4057879617666025	0.3194214027731193	0.46243136498420123	0.49328280924167994	0.3969040276165784	0.4755888897006969	0.48788262624977546	0.40372655615613223	0.5061905010380738	0.4844953614263906	0.3889343820347037	0.0754998745231079	0.15198022818318196	-0.17437946576710736	-0.04236874140688048	0.3158213166813367	0.0036262932625314094	-0.1782260246015509	0.4181853558248344	0.19562150386836857	-0.23518315179715985	0.39433167361200205	0.30688275806027887	-0.24534093431921736	0.4092675078023298	0.31253692711168496	-0.21092002343587418	0.42618342317152436	0.30679014889701306
250	4.237288135593221	0.32572094740748553	0.44552256910100513	0.26263718140909303	0.321701308867508	0.7491928942784936	0.518390331358729	0.31851971872655366	1.04909652222777	0.7911323809100456	0.2885811603018358	0.939685833112428	0.9449384272410644	0.36621496267101444	0.9744812310002537	0.9194781227106507	0.3086118124088185	1.0990071081099881	0.8214838247150383	0.11642601130120762	0.47386512183247886	0.238477081921632	0.1573644489100987	0.7797834007604675	0.49362422124184796	0.162125149593526	1.0415905002546222	0.7797810020054541	0.11422948095421465	0.9006398007433458	0.9231227269795389	0.07794006034151604	0.9785149682385432	0.8858980997549651	0.19445194227099583	1.1128671145603586	0.7977424096799639	0.2392580393682009	0.08932796917138448	-0.20466503250644427	0.27901067052011364	-0.11768443113041112	-0.3468592414673739	0.24300655114916414	-0.07666897979030783	-0.2338002224875544	0.3837089496901356	0.12382326278704767	-0.09305521600353761	0.46423877878527053	0.2867949374780436	0.10216313764182193	0.4965587461399915	0.40766180273108765	0.3166147095851292	0.46180482338197254	0.4876332210922866	0.39459670049841405	0.4748043357828287	0.4874816243162805	0.402541661709738	0.5057908729704811	0.4834712819418284	0.38825943251461587	0.07489034629496534	0.1577232364148335	-0.176788084452599	-0.04572807359363011	0.3148232221859622	0.0057774102405322445	-0.17860871214276297	0.41872965756057523	0.19634776871940127	-0.2349820931197527	0.39832224432688035	0.3073045127203414	-0.24617446585318323	0.4106759744042229	0.3141271344834638	-0.21105151520778873	0.4262952023435362	0.30748972403231883
251	4.254237288135593	0.32699698882190925	0.4522304296716174	0.25956705459577933	0.3217695558669171	0.7502773458493118	0.5196707580932359	0.31828077189697335	1.0444378834473187	0.7925516349599471	0.28816888849780453	0.9354856762070844	0.9457380752209661	0.36268417809589226	0.9646122821373471	0.9213383087379835	0.31014018599962906	1.104718200325929	0.8231682535023861	0.1168694627073099	0.4793187249072957	0.2359691257989876	0.1567268378865649	0.7816572874462987	0.4934974200434171	0.16348222332746556	1.0418216180170077	0.7797478003744531	0.1143547249606841	0.9009444549386264	0.9231075785188789	0.07779597362498165	0.9780199754646417	0.8854423241038477	0.19451638978230906	1.1127948565333143	0.7977933827301038	0.2384248571693719	0.08986861974404978	-0.20551046806636064	0.2781696166387776	-0.11964292675985794	-0.3482343586388755	0.2406756206260695	-0.07711488542394102	-0.2324733733508745	0.3831848212776933	0.12767121104519974	-0.09502482712818489	0.4657517297973928	0.28580926742569945	0.10119259840744774	0.49535745409861365	0.4064843064721211	0.31486493916159086	0.46054108054879805	0.4840652471011241	0.39148562660718345	0.47396884666338324	0.48849412475325893	0.4012505754413038	0.5044186289893975	0.48200454483663163	0.3871506102297046	0.07391056556171355	0.16357226470405273	-0.17927553030967477	-0.04948634659916621	0.31757124146727816	0.006945673051519882	-0.17867217978297156	0.4205630771381811	0.19867981285705894	-0.23488504135638302	0.4020758958238895	0.3076401674059169	-0.24786169484167309	0.41228966911185855	0.3162884729992993	-0.21169535338319154	0.4263280928412631	0.30918004004665445
